<svg width="48" height="47" viewBox="0 0 48 47" fill="none" xmlns="http://www.w3.org/2000/svg">
<g clip-path="url(#clip0_6_2)">
<mask id="mask0_6_2" style="mask-type:luminance" maskUnits="userSpaceOnUse" x="0" y="-1" width="48" height="48">
<path d="M48 -1H0V47H48V-1Z" fill="white"/>
</mask>
<g mask="url(#mask0_6_2)">
<path d="M0 14.5792C0 8.35769 3.83632 2.74813 9.87831 1.26425C19.9862 -1.2182 35.2427 -3.26324 42.753 4.24707C49.0925 10.5867 48.6236 22.4456 46.8302 32.0683C45.1204 41.2426 36.587 47 27.2548 47H7.5C3.35787 47 0 43.6421 0 39.5V14.5792Z" fill="#FE705A"/>
<path d="M36.951 24.3839C36.9322 24.3461 36.6959 24.3083 36.2422 24.2705C35.7696 24.2138 35.2215 24.157 34.5976 24.1004C33.9739 24.0436 33.3312 23.9963 32.6695 23.9586C32.008 23.9208 31.4598 23.8924 31.0251 23.8736C30.7793 23.8736 30.4296 23.8736 29.9759 23.8736C29.5222 23.8546 29.0213 23.8451 28.4731 23.8451C27.9061 23.8451 27.3201 23.8451 26.7152 23.8451C26.1103 23.8263 25.5432 23.8263 25.0139 23.8451C24.4658 23.8451 23.9837 23.8546 23.5679 23.8736C23.152 23.8736 22.8496 23.8736 22.6605 23.8736C22.5849 23.8736 22.4526 23.9019 22.2635 23.9586C22.0745 23.9963 21.8761 24.0436 21.6682 24.1004C21.4602 24.1381 21.2712 24.1854 21.101 24.2421C20.912 24.2988 20.7798 24.3461 20.7041 24.3839C20.6474 25.0456 20.6851 25.7166 20.8175 26.397C20.9498 27.0776 21.101 27.7486 21.2712 28.4102C21.4413 29.0718 21.5831 29.7335 21.6965 30.395C21.81 31.0376 21.81 31.6521 21.6965 32.2381C21.3751 32.3893 21.0537 32.2475 20.7325 31.8128C20.3921 31.3591 20.0991 30.7069 19.8534 29.8562C19.5888 29.0057 19.3809 28.0133 19.2297 26.8791C19.0595 25.7449 18.9839 24.573 19.0028 23.3632C19.0217 22.1534 19.154 20.9625 19.3998 19.7906C19.6266 18.6185 20.0046 17.5694 20.534 16.6432C21.0443 15.7169 21.7154 14.9703 22.5472 14.4032C23.3788 13.8361 24.409 13.5526 25.6377 13.5526C26.0725 13.5526 26.5356 13.6283 27.0271 13.7795C27.5186 13.9306 28.01 14.1291 28.5015 14.3748C28.993 14.6017 29.4655 14.8663 29.9192 15.1688C30.3539 15.4524 30.7226 15.7359 31.0251 16.0194C31.1763 16.1517 31.4126 16.3691 31.7338 16.6715C32.0363 16.974 32.386 17.3237 32.783 17.7207C33.18 18.0988 33.5958 18.5051 34.0306 18.9399C34.4464 19.3746 34.8529 19.7906 35.2498 20.1875C35.6278 20.5655 35.9681 20.9152 36.2705 21.2366C36.573 21.5391 36.7998 21.7658 36.951 21.9171C37.4048 21.9738 37.8206 22.0495 38.1987 22.1439C38.5767 22.2384 38.8697 22.3802 39.0776 22.5692C39.2855 22.7582 39.3801 23.004 39.3612 23.3064C39.3612 23.59 39.21 23.9492 38.9075 24.3839C39.191 24.7998 39.588 25.244 40.0984 25.7166C40.6277 26.1702 41.1286 26.6428 41.6012 27.1343C42.0927 27.6258 42.4801 28.1361 42.7637 28.6654C43.0473 29.1947 43.0756 29.7239 42.8488 30.2532H41.8563L36.951 24.3839ZM34.9663 21.9171C34.4749 20.7263 33.7565 19.6771 32.8113 18.7698C31.8473 17.8435 30.7982 17.1157 29.664 16.5865C28.5299 16.0384 27.3862 15.7075 26.2332 15.5941C25.0612 15.4807 24.031 15.6224 23.1426 16.0194C22.2542 16.4164 21.5736 17.0968 21.101 18.0609C20.6095 19.006 20.4773 20.2914 20.7041 21.9171H34.9663Z" fill="white"/>
<path d="M9.64394 33.6927C9.62445 33.3424 9.59527 32.8168 9.55629 32.1159C9.53689 31.3956 9.50762 30.5877 9.46871 29.6923C9.44929 28.7774 9.42005 27.8236 9.38114 26.8307C9.34222 25.8379 9.30322 24.8937 9.26431 23.9983C9.24489 23.1028 9.22539 22.3047 9.20589 21.6038C9.18648 20.8835 9.17672 20.3483 9.17672 19.9979C9.17672 19.881 9.16698 19.6863 9.14748 19.4138C9.14748 19.1218 9.14748 18.8201 9.14748 18.5086C9.14748 18.1777 9.14748 17.8662 9.14748 17.5742C9.16698 17.2822 9.17672 17.0778 9.17672 16.961C8.94315 17.0778 8.66084 17.2822 8.32992 17.5742C8.01844 17.8662 7.67778 18.1874 7.3079 18.5378C6.93803 18.8687 6.55843 19.1802 6.16909 19.4722C5.79923 19.7448 5.44882 19.9199 5.11788 19.9979C4.67014 19.7253 4.46574 19.3944 4.50467 19.005C4.54361 18.5962 4.75774 18.1679 5.14708 17.7202C5.55588 17.253 6.09122 16.776 6.7531 16.2894C7.43444 15.8027 8.17418 15.3355 8.97232 14.8878C9.78996 14.44 10.6269 14.0312 11.4835 13.6614C12.3401 13.2915 13.148 12.9897 13.9072 12.7562C14.6858 12.5032 15.3672 12.3473 15.9512 12.289C16.5547 12.211 17.0024 12.25 17.2944 12.4057C17.8395 12.9702 18.1022 13.6711 18.0827 14.5081C18.0634 15.3453 17.8784 16.2407 17.5279 17.1946C17.1776 18.1484 16.7201 19.1413 16.1556 20.173C15.5911 21.2047 15.0459 22.2073 14.5204 23.1806C13.9948 24.1345 13.547 25.0397 13.1772 25.8963C12.8073 26.7333 12.6321 27.4537 12.6515 28.0571C12.6711 28.6605 12.9532 29.1083 13.4984 29.4004C14.0434 29.6923 14.9682 29.7604 16.2724 29.6047C16.9342 29.449 17.6253 29.2057 18.3456 28.8747C19.0659 28.5243 19.7667 28.1447 20.448 27.7358C21.1294 27.3076 21.762 26.8599 22.346 26.3927C22.9495 25.9255 23.4557 25.4875 23.8644 25.0787C24.5458 25.2538 24.9255 25.5069 25.0032 25.8379C25.0811 26.1688 24.9449 26.5387 24.5944 26.9475C24.2636 27.3563 23.7575 27.7845 23.076 28.2324C22.3947 28.68 21.6258 29.118 20.7692 29.5464C19.9127 29.9552 19.0173 30.325 18.0827 30.6559C17.1678 30.9868 16.2822 31.2399 15.4256 31.4151C14.5885 31.5903 13.8293 31.6682 13.148 31.6487C12.4862 31.6293 11.9994 31.4638 11.6879 31.1523C11.6879 31.2692 11.6783 31.4736 11.6588 31.7655C11.6392 32.0576 11.6003 32.369 11.542 32.7C11.4835 33.0114 11.3861 33.3131 11.2499 33.6052C11.1137 33.8776 10.9191 34.0723 10.666 34.1892C10.4518 34.2865 10.2474 34.267 10.0527 34.1307C9.87752 33.9945 9.74129 33.8485 9.64394 33.6927ZM11.1915 27.2688L16.5643 15.2673C16.4281 14.8197 16.1945 14.5081 15.8636 14.3329C15.5521 14.1383 15.192 14.0507 14.7832 14.0701C14.3744 14.0701 13.9559 14.1578 13.5275 14.3329C13.0993 14.5081 12.7002 14.7223 12.3303 14.9754C11.98 15.209 11.6879 15.4718 11.4543 15.7638C11.2208 16.0363 11.104 16.2894 11.104 16.523L11.1915 27.2688Z" fill="white"/>
</g>
</g>
<defs>
<clipPath id="clip0_6_2">
<rect width="48" height="47" fill="white"/>
</clipPath>
</defs>
</svg>
